# xmcd
#
# Track frame offsets:
#	150
#	10312
#	67342
#	137270
#	182408
#
# Disc length: 2826 seconds
#
# Revision: 1
# Processed by: cddbd v1.5.2PL0 Copyright (c) Steve Scherf et al.
# Submitted via: audiograbber 1.83.01
#
DISCID=3c0b0805
DTITLE=Grateful Dead - 77-05-18 Fox Theatre, Atlanta GA
DYEAR=1900
DGENRE=
TTITLE0=Drums
TTITLE1=The Other One
TTITLE2=Stella Blue
TTITLE3=Around and Around
TTITLE4=Brokedown Palace
EXTD=
EXTT0=
EXTT1=
EXTT2=
EXTT3=
EXTT4=
PLAYORDER=
